<?xml version="1.0" standalone="no"?>
<!DOCTYPE svg PUBLIC "-//W3C//DTD SVG 20010904//EN"
 "http://www.w3.org/TR/2001/REC-SVG-20010904/DTD/svg10.dtd">
<svg version="1.0" xmlns="http://www.w3.org/2000/svg"
 width="1325.000000pt" height="1187.000000pt" viewBox="0 0 1325.000000 1187.000000"
 preserveAspectRatio="xMidYMid meet">

<g transform="translate(0.000000,1187.000000) scale(0.100000,-0.100000)"
fill="#000000" stroke="none">
<path d="M6475 11798 c-565 -500 -1138 -1162 -1476 -1705 -227 -363 -354 -650
-555 -1248 -186 -555 -273 -961 -320 -1496 -21 -238 -31 -1141 -15 -1345 12
-150 38 -375 47 -405 3 -13 -25 -29 -133 -74 -166 -70 -704 -339 -933 -466
-417 -232 -752 -477 -1064 -779 -189 -184 -310 -316 -552 -604 -106 -127 -219
-260 -249 -296 -162 -188 -420 -635 -675 -1170 -299 -626 -380 -865 -505
-1485 -37 -184 -41 -211 -28 -222 46 -37 684 -254 906 -308 405 -100 1265
-189 1822 -188 244 0 295 3 395 22 63 12 205 35 315 51 675 102 1017 191 1455
377 412 176 1120 613 1547 956 168 135 169 143 3 34 -272 -177 -652 -389
-1070 -596 -606 -301 -1071 -427 -1865 -506 -137 -14 -299 -33 -360 -42 -260
-39 -761 -6 -1480 98 -504 72 -704 120 -1082 257 -152 54 -183 69 -183 85 0
39 102 425 149 567 63 187 173 436 371 835 267 541 467 878 620 1050 40 44
140 163 223 265 214 261 332 392 513 571 359 352 640 552 1269 904 155 87 529
280 616 319 l56 25 33 -117 c46 -166 216 -677 290 -872 198 -521 387 -911 597
-1230 118 -179 189 -271 365 -472 338 -385 619 -661 913 -894 177 -140 174
-132 -25 66 -202 201 -366 385 -555 620 -164 205 -386 504 -452 610 -256 407
-476 939 -703 1700 -78 262 -182 672 -172 682 4 4 95 33 202 63 655 188 1281
297 1795 312 528 15 1268 -102 2018 -319 157 -45 177 -53 177 -72 0 -35 -74
-326 -145 -571 -241 -839 -508 -1474 -792 -1889 -123 -179 -412 -550 -594
-761 -202 -235 -549 -582 -569 -570 -3 2 -7 -2 -7 -10 0 -8 3 -12 7 -10 4 2
45 -28 91 -67 192 -163 492 -374 859 -605 423 -266 741 -422 1114 -548 304
-102 578 -164 1050 -235 144 -22 311 -49 371 -59 61 -11 180 -23 265 -26 449
-20 1558 88 1964 191 146 37 368 107 566 179 316 115 340 125 340 145 0 37
-81 423 -130 617 -95 378 -224 701 -508 1268 -259 519 -447 830 -617 1020 -39
44 -148 172 -242 285 -566 681 -977 1021 -1713 1418 -270 146 -617 316 -795
391 -82 35 -153 66 -156 70 -4 3 -1 51 6 106 31 231 38 430 32 936 -5 497 -12
628 -43 904 -61 547 -213 1094 -506 1820 -256 634 -687 1234 -1388 1935 -146
146 -337 328 -425 405 -88 76 -169 147 -180 156 -19 17 -22 16 -100 -53z m233
-510 c555 -511 1069 -1134 1353 -1643 112 -202 192 -386 334 -770 306 -831
395 -1377 395 -2440 -1 -297 -22 -676 -40 -705 -6 -9 -48 -1 -166 33 -796 228
-1629 350 -2154 317 -565 -35 -1224 -155 -1810 -329 -74 -22 -138 -37 -142
-33 -3 4 -15 79 -25 167 -15 134 -18 238 -17 645 1 857 50 1277 216 1865 86
306 274 831 382 1065 214 466 598 1002 1107 1547 135 145 411 414 421 411 4
-2 70 -60 146 -130z m2667 -6187 c318 -166 708 -390 895 -514 435 -290 762
-599 1190 -1122 90 -110 199 -239 241 -287 150 -170 337 -486 594 -1003 244
-493 359 -762 429 -1011 58 -205 108 -415 102 -430 -9 -22 -449 -175 -661
-228 -93 -23 -369 -72 -595 -105 -694 -101 -1228 -136 -1485 -98 -60 9 -223
28 -361 42 -534 53 -861 117 -1244 245 -231 77 -395 147 -680 290 -426 213
-770 407 -1029 578 -132 88 -142 96 -125 109 226 163 445 356 705 619 537 546
772 863 1035 1397 210 427 455 1087 608 1639 l16 57 98 -45 c53 -25 174 -85
267 -133z"/>
</g>
</svg>
